# Blender 4.0.2
# www.blender.org
mtllib hexagon.mtl
o hedagonbase40x3.2
v 11.609329 0.000001 -20.906250
v -11.484680 0.000001 -20.906250
v 11.031982 3.200001 -19.906250
v -10.907333 3.200001 -19.906250
v 22.001633 3.200001 -0.906250
v 23.156342 0.000001 -0.906250
v 11.609329 0.000001 19.093750
v 11.031982 3.200001 18.093750
v -11.484680 0.000001 19.093750
v -10.907333 3.200001 18.093750
v -21.876984 3.200001 -0.906250
v -23.031685 0.000001 -0.906250
vn -0.0000 0.2982 -0.9545
vn -0.0000 0.2983 -0.9545
vn 0.8266 0.2983 -0.4772
vn 0.8266 0.2983 0.4772
vn -0.0000 0.2983 0.9545
vn -0.0000 1.0000 -0.0000
vn -0.8266 0.2983 -0.4772
vn -0.8266 0.2983 0.4772
vn -0.0000 -1.0000 -0.0000
s 0
f 1//1 2//1 3//1
f 2//2 4//2 3//2
f 3//3 5//3 1//3
f 5//3 6//3 1//3
f 6//4 5//4 7//4
f 5//4 8//4 7//4
f 7//5 8//5 9//5
f 8//5 10//5 9//5
f 3//6 4//6 5//6
f 4//6 11//6 5//6
f 10//6 8//6 11//6
f 8//6 5//6 11//6
f 4//7 2//7 11//7
f 2//7 12//7 11//7
f 12//8 9//8 11//8
f 9//8 10//8 11//8
f 2//9 1//9 12//9
f 1//9 6//9 12//9
f 7//9 9//9 6//9
f 9//9 12//9 6//9
