# Blender 4.0.2
# www.blender.org
mtllib octagon.mtl
o octagon
v 9.453747 2.000000 -4.041769
v -9.023844 2.000000 -4.041769
v 9.453747 2.000000 3.611900
v -9.023844 2.000000 3.611900
v 4.041786 2.000000 9.023861
v -3.611881 2.000000 9.023861
v 4.041786 2.000000 -9.453730
v -3.611881 2.000000 -9.453730
v 9.453747 -0.000000 3.611900
v -9.023844 -0.000000 3.611900
v 9.453747 -0.000000 -4.041769
v -9.023844 -0.000000 -4.041769
v 4.041786 -0.000000 -9.453730
v -3.611881 -0.000000 -9.453730
v 4.041786 -0.000000 9.023861
v -3.611881 -0.000000 9.023861
vn -0.0000 1.0000 -0.0000
vn -0.0000 -1.0000 -0.0000
vn 0.7071 -0.0000 0.7071
vn -0.0000 -0.0000 1.0000
vn -0.7071 -0.0000 0.7071
vn -1.0000 -0.0000 -0.0000
vn -0.7071 -0.0000 -0.7071
vn -0.0000 -0.0000 -1.0000
vn 0.7071 -0.0000 -0.7071
vn 1.0000 -0.0000 -0.0000
s 0
f 1//1 2//1 3//1
f 3//1 2//1 4//1
f 3//1 4//1 5//1
f 5//1 4//1 6//1
f 7//1 8//1 1//1
f 1//1 8//1 2//1
f 9//2 10//2 11//2
f 11//2 10//2 12//2
f 11//2 12//2 13//2
f 13//2 12//2 14//2
f 15//2 16//2 9//2
f 9//2 16//2 10//2
f 5//3 15//3 3//3
f 3//3 15//3 9//3
f 6//4 16//4 5//4
f 5//4 16//4 15//4
f 4//5 10//5 6//5
f 6//5 10//5 16//5
f 2//6 12//6 4//6
f 4//6 12//6 10//6
f 8//7 14//7 2//7
f 2//7 14//7 12//7
f 7//8 13//8 8//8
f 8//8 13//8 14//8
f 1//9 11//9 7//9
f 7//9 11//9 13//9
f 3//10 9//10 1//10
f 1//10 9//10 11//10
