# Blender 4.0.2
# www.blender.org
mtllib triangle.mtl
o kaitlyn.triangle
v 8.992044 2.540000 14.931943
v 8.992044 2.540000 -15.863920
v -17.677958 2.540000 -0.465988
v 8.992044 0.000000 -15.863920
v 8.992044 0.000000 14.931943
v -17.677958 0.000000 -0.465988
vn -0.0000 1.0000 -0.0000
vn -0.0000 -1.0000 -0.0000
vn -0.5000 -0.0000 0.8660
vn -0.5000 -0.0000 -0.8660
vn 1.0000 -0.0000 -0.0000
s 0
f 1//1 2//1 3//1
f 4//2 5//2 6//2
f 3//3 6//3 1//3
f 1//3 6//3 5//3
f 2//4 4//4 3//4
f 3//4 4//4 6//4
f 1//5 5//5 2//5
f 2//5 5//5 4//5
